<?xml version="1.0" encoding="utf-8"?>
<!-- Generator: Adobe Illustrator 19.0.0, SVG Export Plug-In . SVG Version: 6.00 Build 0)  -->
<svg version="1.0" id="Layer_1" xmlns="http://www.w3.org/2000/svg" xmlns:xlink="http://www.w3.org/1999/xlink" x="0px" y="0px"
	 viewBox="0 0 1024 1024" style="enable-background:new 0 0 1024 1024;" xml:space="preserve">
<style type="text/css">
	.st0{fill:#8981D8;}
</style>
<g id="XMLID_312_">
	<g id="XMLID_228_">
		<path id="XMLID_236_" class="st0" d="M599.6,203.3h-7.3c-17.6-25.5-47.1-42.1-80.4-42.1s-62.8,16.7-80.4,42.1h-7.3
			c-45.2,0-82,36.7-82,82V547c0,45.2,36.8,82,82,82h175.5c45.2,0,82-36.8,82-82V285.3C681.6,240.1,644.8,203.3,599.6,203.3z
			 M512.1,289.7l-17.3,17.3l0,0l0,0l-17.3-17.3l0,0l-27.2-27.2l17.3-17.3l27.2,27.2l61.3-61.3l17.3,17.3L512.1,289.7L512.1,289.7z
			 M599.6,600.5H424.1c-29.5,0-53.5-24-53.5-53.5V314.1h60.5c17.6,25.7,47.2,42.6,80.7,42.6s63.1-16.9,80.7-42.6h60.5v114H548.5
			v56.9h104.7V547C653.1,576.5,629.1,600.5,599.6,600.5z"/>
		<polygon id="XMLID_235_" class="st0" points="534.3,485.1 534.3,428.2 478.5,456.6 		"/>
	</g>
	<g id="XMLID_219_">
		<path id="XMLID_265_" class="st0" d="M51.2,849c-5.7-0.7-11.3-1.8-16.8-3.4c-5.9-1.6-10.8-3.7-14.6-6.4c-3.8-2.7-6.9-6.2-9.3-10.6
			c-2.4-4.6-3.6-9.9-3.6-15.8v-53.4c0-6.5,1.3-12.3,4-17.5c2.6-5.2,6.2-9.3,10.7-12.4c4.2-2.8,9.3-5.1,15.1-7.1
			c5.9-2,11.6-3.3,17.3-4c4.7-0.5,10.5-0.8,17.2-0.8c18.2,0,35.6,1.4,52.2,4.2v23.3c-15.3-3.7-32.7-5.5-52.2-5.5
			c-22.3,0-33.4,6.5-33.4,19.4v51.6c0,6.3,3,10.8,9,13.5c6,2.6,15.1,4,27.2,4c6.5,0,13.4-1,20.8-3v-29.9h-21V775h50.4v66.7
			c-6.6,2.4-15,4.4-25.2,5.9c-10.2,1.6-19.6,2.4-28.2,2.4C63.4,850,56.8,849.7,51.2,849z"/>
		<path id="XMLID_267_" class="st0" d="M179.2,849.4c-3.8-0.4-7.9-1.2-12.3-2.4c-4.7-1.3-8.6-3.2-11.5-5.6
			c-2.9-2.4-5.3-5.9-7.3-10.4c-2-4.4-3-9.6-3-15.8v-28.3c0-6.3,1-11.9,3-16.6c2-4.7,4.5-8.4,7.7-11.1c2.8-2.2,6.4-4.1,11-5.6
			c4.6-1.5,9-2.5,13.4-2.9c5-0.3,9.6-0.4,13.7-0.4c6.1,0,10.9,0.2,14.5,0.5c3.6,0.3,7.6,1.2,12,2.5c4.7,1.5,8.6,3.4,11.6,5.9
			c3,2.5,5.5,6.1,7.6,10.7c2,4.7,3,10.4,3,17v28.3c0,5.9-1,11.1-2.9,15.6c-1.9,4.5-4.4,8-7.4,10.5c-2.6,2.2-6.2,4.1-10.8,5.4
			c-4.5,1.4-9,2.3-13.4,2.7c-4,0.4-8.7,0.6-14.2,0.6C187.9,850,183,849.8,179.2,849.4z M206.1,830.7c2.8-0.9,4.7-2.2,5.8-4.1
			c1.1-1.8,1.7-4.5,1.7-8.1v-36.2c0-5.3-1.4-9-4.2-11.1c-2.8-2.1-8-3.2-15.6-3.2c-7.7,0-12.9,1.1-15.6,3.2
			c-2.8,2.1-4.2,5.8-4.2,11.1v36.2c0,3.6,0.6,6.3,1.7,8.1c1.1,1.8,3.1,3.2,5.8,4.1c2.8,0.9,6.9,1.3,12.3,1.3
			C199.2,832,203.3,831.6,206.1,830.7z"/>
		<path id="XMLID_270_" class="st0" d="M296.3,849.4c-3.8-0.4-7.9-1.2-12.3-2.4c-4.7-1.3-8.6-3.2-11.5-5.6
			c-2.9-2.4-5.3-5.9-7.3-10.4c-2-4.4-3-9.6-3-15.8v-28.3c0-6.3,1-11.9,3-16.6c2-4.7,4.5-8.4,7.7-11.1c2.8-2.2,6.4-4.1,11-5.6
			c4.6-1.5,9-2.5,13.4-2.9c5-0.3,9.6-0.4,13.7-0.4c6.1,0,10.9,0.2,14.5,0.5c3.6,0.3,7.6,1.2,12,2.5c4.7,1.5,8.6,3.4,11.6,5.9
			c3,2.5,5.5,6.1,7.6,10.7c2,4.7,3,10.4,3,17v28.3c0,5.9-1,11.1-2.9,15.6c-1.9,4.5-4.4,8-7.4,10.5c-2.6,2.2-6.2,4.1-10.8,5.4
			c-4.5,1.4-9,2.3-13.4,2.7c-4,0.4-8.7,0.6-14.2,0.6C305,850,300.1,849.8,296.3,849.4z M323.2,830.7c2.8-0.9,4.7-2.2,5.8-4.1
			c1.1-1.8,1.7-4.5,1.7-8.1v-36.2c0-5.3-1.4-9-4.2-11.1c-2.8-2.1-8-3.2-15.6-3.2c-7.7,0-12.9,1.1-15.6,3.2
			c-2.8,2.1-4.2,5.8-4.2,11.1v36.2c0,3.6,0.6,6.3,1.7,8.1c1.1,1.8,3.1,3.2,5.8,4.1c2.8,0.9,6.9,1.3,12.3,1.3
			C316.3,832,320.4,831.6,323.2,830.7z"/>
		<path id="XMLID_273_" class="st0" d="M393.8,847.5c-5.4-1.6-9.2-4.8-11.3-9.4c-2.1-4.6-3.2-11.8-3.2-21.6v-37.4
			c0-10.5,3-18,9-22.4c6-4.4,15.7-6.5,29.2-6.5c6.3,0,11.3,0.4,14.9,1.1c3.6,0.7,6.6,2,8.8,3.8c2.2,1.8,4.6,4.4,6.9,7.8v-53.4h28.9
			V848h-27.9v-10.9c-2.4,3.8-4.5,6.5-6.4,8c-1.9,1.5-4.6,2.7-8,3.5c-3.6,0.9-8.8,1.4-15.8,1.4C407.6,850,399.2,849.2,393.8,847.5z
			 M440.5,831c3-0.7,5.1-1.9,6.1-3.7c1.1-1.8,1.6-4.4,1.6-8v-38.6c0-3.3-0.6-5.8-1.7-7.6c-1.1-1.8-3.1-3.1-5.9-3.9
			c-2.8-0.8-7.1-1.2-12.8-1.2c-6.1,0-10.4,0.4-13.1,1.1c-2.6,0.7-4.4,2-5.2,3.8c-0.9,1.8-1.3,4.7-1.3,8.8v36.6
			c0,3.7,0.4,6.5,1.3,8.4c0.9,1.9,2.5,3.3,5,4.1c2.5,0.8,6.4,1.2,11.7,1.2C432.7,832,437.4,831.7,440.5,831z"/>
		<path id="XMLID_276_" class="st0" d="M506.3,719.7h23.1l69.8,106v-106h16.8V848H593l-69.8-107.8V848h-16.8V719.7z"/>
		<path id="XMLID_278_" class="st0" d="M669.7,849.1c-4.2-0.6-8.4-1.9-12.7-3.9c-4.4-2-7.5-5.2-9.5-9.6c-2-4.4-3-10.4-3-17.9v-33.2
			c0-5.9,0.7-11.1,2.2-15.6c1.4-4.5,3.4-8,5.7-10.5c2-2.2,5-4,9-5.2c4-1.3,8.1-2.1,12.4-2.5c4.7-0.3,9.7-0.4,14.8-0.4
			c6.9,0,12,0.2,15.5,0.5c3.5,0.3,7.2,1,11.2,2.1c4.1,1.2,7.3,3,9.5,5.3c2.2,2.4,4.2,5.8,5.7,10.3c1.4,4.6,2.2,10,2.2,16v33.2
			c0,11.2-2.6,19.4-7.7,24.5c-2.1,2.1-5.1,3.8-9.1,4.9c-4,1.2-8,2-12.3,2.4c-5,0.3-10,0.4-15,0.4C680.3,850,674,849.7,669.7,849.1z
			 M700.8,837.9c2.5-0.3,4.9-1,7.3-2.2c2.4-1.1,4.1-2.8,5-5.2c1-2.4,1.5-5.8,1.5-10.2v-38.8c0-5.9-0.7-10.3-2.2-13
			c-1.5-2.7-3.9-4.5-7.4-5.3c-3.5-0.9-8.9-1.3-16.3-1.3c-7.4,0-12.8,0.4-16.3,1.3c-3.5,0.9-6,2.6-7.4,5.3c-1.5,2.7-2.2,7-2.2,13
			v38.8c0,4.4,0.5,7.7,1.5,10.2c1,2.4,2.7,4.2,5,5.2c2.4,1.2,4.8,1.9,7.3,2.2c2.5,0.3,6.5,0.4,12.1,0.4
			C694.3,838.3,698.3,838.2,700.8,837.9z"/>
		<path id="XMLID_281_" class="st0" d="M781.5,847.3c-4.6-1.8-7.9-4.8-10-9.1c-2-4.3-3.1-10.3-3.1-18.1V764h-21.4v-11.7h21.4v-29.7
			h18v29.7h34.2V764h-34.2v57.2c0,4.7,0.6,8.3,1.7,10.7c1.1,2.4,3.1,4.1,5.9,5c2.8,1,7,1.5,12.4,1.5c1.7,0,6.5-0.5,14.2-1.6v11.7
			c-6.7,1.1-13.4,1.6-20,1.6C792.5,850,786.1,849.1,781.5,847.3z"/>
		<path id="XMLID_283_" class="st0" d="M836.5,820.7V783c0-11.6,3.3-19.9,10-25c6.7-5.1,17.4-7.6,32.3-7.6c14.1,0,24.3,2.4,30.6,7.3
			c6.3,4.9,9.4,13.3,9.4,25.3v21.2h-64.3v14.4c0,6.6,2.3,11.3,6.9,14.2c4.6,2.9,11.7,4.4,21.4,4.4c9.1,0,19.8-1.6,32.2-4.7v13.7
			c-12.1,2.6-23.7,4-34.6,4C851.1,850,836.5,840.3,836.5,820.7z M901,792.4v-15c0-5.8-1.8-9.8-5.2-12c-3.5-2.2-9.5-3.3-17.9-3.3
			c-8.2,0-14.1,1.1-17.8,3.3c-3.7,2.2-5.5,6.2-5.5,12v15H901z"/>
		<path id="XMLID_286_" class="st0" d="M942.3,847.6V834c15.4,2.5,26.5,3.8,33.2,3.8c8.4,0,14.5-0.8,18.2-2.5
			c3.7-1.6,5.5-4.7,5.5-9.2v-9.7c0-4.1-1.4-7-4.2-8.7c-2.8-1.7-7.3-2.6-13.5-2.6h-10.9c-9.9,0-17.4-2-22.7-6.1
			c-5.2-4.1-7.8-9.8-7.8-17.2v-8.9c0-15,14.2-22.6,42.7-22.6c2.1,0,11.8,0.5,29.1,1.6v12.9c-11.7-1.8-21.7-2.8-29.9-2.8
			c-9.4,0-15.8,0.9-19.2,2.8c-3.4,1.8-5.1,4.9-5.1,9.3v8.1c0,6.5,5.9,9.7,17.6,9.7h11.1c20.2,0,30.3,7.5,30.3,22.5v8.3
			c0,9.9-3.4,16.9-10.3,21.1c-6.9,4.2-17.3,6.2-31.5,6.2C965,850,954.1,849.2,942.3,847.6z"/>
	</g>
</g>
</svg>
