<svg xmlns="http://www.w3.org/2000/svg" xmlns:xlink="http://www.w3.org/1999/xlink" id="Layer_1" x="0" y="0" version="1.0" viewBox="0 0 1024 1024" xml:space="preserve" style="enable-background:new 0 0 1024 1024"><style type="text/css">.st0{fill:#8981d8}.st1{fill:#fff}</style><g id="XMLID_351_"><circle id="XMLID_321_" cx="511.8" cy="512.2" r="503.4" class="st0"/><g id="XMLID_322_"><path id="XMLID_324_" d="M650.2,209.9h-11.6c-27.8-40.1-74.2-66.4-126.8-66.4s-98.9,26.3-126.8,66.4h-11.6 c-71.2,0-129.2,57.9-129.2,129.2v412.6c0,71.2,58,129.2,129.2,129.2h276.7c71.2,0,129.2-58,129.2-129.2V339.1 C779.4,267.9,721.4,209.9,650.2,209.9z M512.2,346l-27.3,27.3l0,0l0,0L457.7,346l0,0l-42.9-42.9l27.3-27.2l42.9,42.9l96.7-96.7 l27.2,27.3L512.2,346L512.2,346z M650.2,836.2H373.4c-46.5,0-84.4-37.9-84.4-84.4V384.6h95.4c27.7,40.6,74.4,67.2,127.3,67.2 s99.5-26.7,127.3-67.2h95.4v179.8h-165v89.7h165v97.7C734.5,798.3,696.7,836.2,650.2,836.2z" class="st1"/><polygon id="XMLID_323_" points="547.1 654.1 547.1 564.4 459.2 609.2" class="st1"/></g></g></svg>