<?xml version="1.0" encoding="utf-8"?>
<!-- Generator: Adobe Illustrator 19.0.0, SVG Export Plug-In . SVG Version: 6.00 Build 0)  -->
<svg version="1.0" id="Layer_1" xmlns="http://www.w3.org/2000/svg" xmlns:xlink="http://www.w3.org/1999/xlink" x="0px" y="0px"
	 viewBox="0 0 1024 1024" style="enable-background:new 0 0 1024 1024;" xml:space="preserve">
<style type="text/css">
	.st0{fill:#8981D8;}
	.st1{fill:#FFFFFF;}
</style>
<g id="XMLID_344_">
	<path id="XMLID_761_" class="st0" d="M1016.6,222.2v580c0,118-96.6,214.5-214.5,214.5H222.1c-118,0-214.5-96.6-214.5-214.5v-580
		c0-118,96.6-214.5,214.5-214.5H802C920,7.7,1016.6,104.3,1016.6,222.2z"/>
	<g id="XMLID_345_">
		<path id="XMLID_347_" class="st1" d="M661.4,185.9h-12.5c-30-43.3-80.1-71.7-136.8-71.7s-106.8,28.4-136.9,71.7h-12.5
			c-76.9,0-139.5,62.5-139.5,139.5v445.4c0,76.9,62.6,139.5,139.5,139.5h298.7c76.9,0,139.5-62.6,139.5-139.5V325.4
			C800.9,248.4,738.3,185.9,661.4,185.9z M512.5,332.8l-29.4,29.4l0,0l0,0l-29.4-29.4l0,0l-46.3-46.3l29.4-29.4l46.3,46.3L587.4,199
			l29.4,29.4L512.5,332.8L512.5,332.8z M661.4,861.9H362.7c-50.2,0-91.1-40.9-91.1-91.1V374.4h103C404.6,418.3,455,447,512.1,447
			s107.5-28.8,137.4-72.6h103v194.1H574.4v96.8h178.1v105.4C752.5,821,711.7,861.9,661.4,861.9z"/>
		<polygon id="XMLID_346_" class="st1" points="550.2,665.4 550.2,568.5 455.2,617 		"/>
	</g>
</g>
</svg>
