<?xml version="1.0" encoding="utf-8"?>
<!-- Generator: Adobe Illustrator 19.0.0, SVG Export Plug-In . SVG Version: 6.00 Build 0)  -->
<svg version="1.0" id="Layer_1" xmlns="http://www.w3.org/2000/svg" xmlns:xlink="http://www.w3.org/1999/xlink" x="0px" y="0px"
	 viewBox="0 0 1024 1024" style="enable-background:new 0 0 1024 1024;" xml:space="preserve">
<style type="text/css">
	.st0{fill:#8981D8;}
</style>
<g id="XMLID_313_">
	<path id="XMLID_316_" class="st0" d="M700,102h-15.7C646.4,47.4,583.4,11.7,512,11.7S377.6,47.4,339.8,102H324
		c-96.8,0-175.6,78.7-175.6,175.6v560.6c0,96.8,78.8,175.6,175.6,175.6H700c96.8,0,175.6-78.8,175.6-175.6V277.5
		C875.5,180.7,796.8,102,700,102z M512.5,286.9l-37,37l-0.1-0.1l-0.1,0.1l-37-37l0.1-0.1l-58.3-58.2l37-37l58.2,58.2l131.4-131.4
		l37,37L512.5,286.9L512.5,286.9z M700,952.7H324c-63.2,0-114.6-51.4-114.6-114.6V339.3H339c37.7,55.2,101.1,91.4,173,91.4
		s135.2-36.2,173-91.4h129.6v244.3H590.4v121.9h224.2v132.7C814.6,901.3,763.2,952.7,700,952.7z"/>
	<polygon id="XMLID_314_" class="st0" points="559.9,705.4 559.9,583.5 440.5,644.5 	"/>
</g>
</svg>
