<svg xmlns="http://www.w3.org/2000/svg" xmlns:xlink="http://www.w3.org/1999/xlink" id="Layer_1" x="0" y="0" version="1.0" viewBox="0 0 1024 1024" xml:space="preserve" style="enable-background:new 0 0 1024 1024"><style type="text/css">.st0{fill:#8981d8}</style><g id="XMLID_311_"><g id="XMLID_207_"><path id="XMLID_232_" d="M140.1,406h-3.8c-9.1-13.2-24.4-21.8-41.6-21.8s-32.5,8.6-41.6,21.8h-3.8 c-23.4,0-42.4,19-42.4,42.4v135.5c0,23.4,19,42.4,42.4,42.4h90.9c23.4,0,42.4-19,42.4-42.4V448.4C182.6,425,163.5,406,140.1,406z M94.8,450.7l-8.9,8.9l0,0l0,0l-8.9-8.9l0,0l-14.1-14.1l8.9-8.9l14.1,14.1l31.8-31.8l8.9,8.9L94.8,450.7L94.8,450.7z M140.1,611.6 H49.3c-15.3,0-27.7-12.4-27.7-27.7V463.4h31.3c9.1,13.3,24.4,22.1,41.8,22.1s32.7-8.8,41.8-22.1h31.3v59h-54.2v29.5h54.2v32.1 C167.8,599.2,155.4,611.6,140.1,611.6z" class="st0"/><polygon id="XMLID_234_" points="106.3 551.8 106.3 522.4 77.4 537.1" class="st0"/></g><g id="XMLID_208_"><path id="XMLID_241_" d="M263.1,566.2c-4.4-0.5-8.8-1.4-13.1-2.6c-4.6-1.2-8.4-2.9-11.4-5c-3-2.1-5.4-4.9-7.3-8.3 c-1.9-3.6-2.8-7.7-2.8-12.4v-41.7c0-5,1-9.6,3.1-13.7c2.1-4.1,4.8-7.3,8.3-9.7c3.3-2.2,7.2-4,11.8-5.6c4.6-1.5,9.1-2.6,13.5-3.1 c3.7-0.4,8.2-0.6,13.4-0.6c14.2,0,27.8,1.1,40.8,3.2v18.2c-11.9-2.9-25.5-4.3-40.8-4.3c-17.4,0-26.1,5-26.1,15.1v40.3 c0,4.9,2.3,8.4,7,10.5c4.7,2.1,11.8,3.1,21.2,3.1c5,0,10.5-0.8,16.2-2.3v-23.3h-16.4v-15.8h39.4v52.1c-5.2,1.9-11.7,3.4-19.7,4.6 c-8,1.2-15.3,1.9-22,1.9C272.6,567,267.5,566.7,263.1,566.2z" class="st0"/><path id="XMLID_243_" d="M363,566.5c-3-0.3-6.2-0.9-9.6-1.9c-3.7-1-6.7-2.5-9-4.4c-2.3-1.9-4.2-4.6-5.7-8.1 c-1.5-3.4-2.3-7.5-2.3-12.4v-22.1c0-4.9,0.8-9.3,2.3-13c1.5-3.7,3.6-6.6,6-8.6c2.2-1.7,5-3.2,8.6-4.4c3.6-1.2,7-1.9,10.4-2.2 c3.9-0.2,7.5-0.3,10.7-0.3c4.7,0,8.5,0.1,11.4,0.4c2.8,0.3,5.9,0.9,9.3,1.9c3.7,1.1,6.7,2.7,9,4.6c2.3,2,4.3,4.7,5.9,8.3 c1.5,3.7,2.3,8.1,2.3,13.3v22.1c0,4.6-0.7,8.7-2.2,12.2c-1.5,3.5-3.4,6.2-5.8,8.2c-2.1,1.8-4.9,3.2-8.4,4.2 c-3.6,1.1-7,1.8-10.4,2.1c-3.1,0.3-6.8,0.5-11.1,0.5C369.8,567,366,566.9,363,566.5z M384.1,551.9c2.2-0.7,3.7-1.7,4.6-3.2 c0.9-1.4,1.3-3.6,1.3-6.3v-28.3c0-4.1-1.1-7-3.2-8.7c-2.2-1.6-6.2-2.5-12.2-2.5c-6,0-10,0.8-12.2,2.5c-2.2,1.6-3.2,4.5-3.2,8.7 v28.3c0,2.8,0.4,4.9,1.3,6.3c0.9,1.4,2.4,2.5,4.6,3.2c2.2,0.7,5.4,1,9.6,1C378.7,553,381.9,552.6,384.1,551.9z" class="st0"/><path id="XMLID_246_" d="M454.5,566.5c-3-0.3-6.2-0.9-9.6-1.9c-3.7-1-6.7-2.5-9-4.4c-2.3-1.9-4.2-4.6-5.7-8.1 c-1.5-3.4-2.3-7.5-2.3-12.4v-22.1c0-4.9,0.8-9.3,2.3-13c1.5-3.7,3.6-6.6,6-8.6c2.2-1.7,5-3.2,8.6-4.4c3.6-1.2,7-1.9,10.4-2.2 c3.9-0.2,7.5-0.3,10.7-0.3c4.7,0,8.5,0.1,11.4,0.4c2.8,0.3,5.9,0.9,9.3,1.9c3.7,1.1,6.7,2.7,9,4.6c2.3,2,4.3,4.7,5.9,8.3 c1.5,3.7,2.3,8.1,2.3,13.3v22.1c0,4.6-0.7,8.7-2.2,12.2c-1.5,3.5-3.4,6.2-5.8,8.2c-2.1,1.8-4.9,3.2-8.4,4.2 c-3.6,1.1-7,1.8-10.4,2.1c-3.1,0.3-6.8,0.5-11.1,0.5C461.3,567,457.5,566.9,454.5,566.5z M475.5,551.9c2.2-0.7,3.7-1.7,4.6-3.2 c0.9-1.4,1.3-3.6,1.3-6.3v-28.3c0-4.1-1.1-7-3.2-8.7c-2.2-1.6-6.2-2.5-12.2-2.5c-6,0-10,0.8-12.2,2.5c-2.2,1.6-3.2,4.5-3.2,8.7 v28.3c0,2.8,0.4,4.9,1.3,6.3c0.9,1.4,2.4,2.5,4.6,3.2c2.2,0.7,5.4,1,9.6,1C470.1,553,473.3,552.6,475.5,551.9z" class="st0"/><path id="XMLID_250_" d="M530.6,565.1c-4.2-1.3-7.2-3.7-8.8-7.3c-1.6-3.6-2.5-9.2-2.5-16.8v-29.2 c0-8.2,2.3-14.1,7-17.5c4.7-3.4,12.3-5.1,22.8-5.1c4.9,0,8.8,0.3,11.7,0.8c2.8,0.6,5.1,1.5,6.9,2.9c1.7,1.4,3.6,3.4,5.4,6.1v-41.7 h22.6v108.1h-21.8V557c-1.9,3-3.5,5.1-5,6.3c-1.5,1.2-3.6,2.1-6.3,2.7c-2.8,0.7-6.9,1.1-12.4,1.1 C541.4,567,534.9,566.4,530.6,565.1z M567.1,552.2c2.4-0.5,4-1.5,4.8-2.9c0.8-1.4,1.2-3.5,1.2-6.3v-30.1c0-2.6-0.4-4.6-1.3-5.9 c-0.9-1.4-2.4-2.4-4.6-3c-2.2-0.6-5.5-0.9-10-0.9c-4.7,0-8.1,0.3-10.2,0.8c-2.1,0.6-3.4,1.5-4.1,2.9c-0.7,1.4-1,3.7-1,6.9v28.6 c0,2.9,0.3,5.1,1,6.6c0.7,1.5,2,2.5,3.9,3.2c2,0.6,5,0.9,9.1,0.9C561,553,564.7,552.7,567.1,552.2z" class="st0"/><path id="XMLID_253_" d="M618.5,465.2h18.1l54.5,82.8v-82.8h13.1v100.2h-18.1l-54.5-84.2v84.2h-13.1V465.2z" class="st0"/><path id="XMLID_255_" d="M746.1,566.3c-3.3-0.5-6.6-1.5-9.9-3c-3.4-1.5-5.9-4-7.4-7.5c-1.5-3.4-2.3-8.1-2.3-14v-26 c0-4.6,0.6-8.7,1.7-12.2c1.1-3.5,2.6-6.2,4.5-8.2c1.5-1.7,3.9-3.1,7-4.1c3.1-1,6.4-1.6,9.7-1.9c3.7-0.2,7.6-0.3,11.6-0.3 c5.4,0,9.4,0.1,12.1,0.4c2.7,0.3,5.6,0.8,8.7,1.6c3.2,0.9,5.7,2.3,7.4,4.2c1.7,1.9,3.2,4.5,4.5,8c1.1,3.6,1.7,7.8,1.7,12.5v26 c0,8.8-2,15.1-6,19.2c-1.6,1.6-4,2.9-7.1,3.9c-3.1,0.9-6.3,1.5-9.6,1.9c-3.9,0.2-7.8,0.3-11.7,0.3 C754.4,567,749.4,566.8,746.1,566.3z M770.4,557.6c2-0.2,3.9-0.8,5.7-1.7c1.9-0.8,3.2-2.2,3.9-4.1c0.8-1.9,1.2-4.6,1.2-8v-30.3 c0-4.6-0.6-8-1.7-10.1c-1.1-2.1-3.1-3.5-5.8-4.2c-2.7-0.7-7-1-12.7-1c-5.8,0-10,0.3-12.7,1c-2.7,0.7-4.7,2.1-5.8,4.2 c-1.1,2.1-1.7,5.5-1.7,10.1v30.3c0,3.4,0.4,6.1,1.2,8c0.8,1.9,2.1,3.3,3.9,4.1c1.9,0.9,3.8,1.5,5.7,1.7c2,0.2,5.1,0.3,9.4,0.3 C765.3,557.9,768.4,557.8,770.4,557.6z" class="st0"/><path id="XMLID_258_" d="M833.4,564.9c-3.6-1.4-6.2-3.8-7.8-7.1c-1.6-3.3-2.4-8.1-2.4-14.1v-43.9h-16.7v-9.1h16.7 v-23.2h14.1v23.2H864v9.1h-26.7v44.6c0,3.7,0.4,6.5,1.3,8.3c0.9,1.9,2.4,3.2,4.6,3.9c2.2,0.8,5.4,1.2,9.7,1.2 c1.3,0,5-0.4,11.1-1.2v9.1c-5.3,0.8-10.5,1.2-15.6,1.2C842,567,837,566.3,833.4,564.9z" class="st0"/><path id="XMLID_260_" d="M876.3,544.1v-29.5c0-9.1,2.6-15.6,7.8-19.5c5.2-4,13.6-5.9,25.3-5.9c11,0,19,1.9,23.9,5.7 c4.9,3.8,7.3,10.4,7.3,19.8v16.5h-50.2v11.3c0,5.2,1.8,8.9,5.4,11.1c3.6,2.3,9.2,3.4,16.7,3.4c7.1,0,15.5-1.2,25.2-3.7v10.7 c-9.5,2.1-18.5,3.1-27,3.1C887.8,567,876.3,559.4,876.3,544.1z M926.7,522.1v-11.7c0-4.5-1.4-7.6-4.1-9.3c-2.7-1.7-7.4-2.5-14-2.5 c-6.4,0-11,0.8-13.9,2.5c-2.9,1.7-4.3,4.8-4.3,9.3v11.7H926.7z" class="st0"/><path id="XMLID_263_" d="M959,565.2v-10.7c12,2,20.7,2.9,26,2.9c6.6,0,11.3-0.6,14.2-1.9c2.9-1.3,4.3-3.7,4.3-7.2 v-7.6c0-3.2-1.1-5.5-3.2-6.8c-2.2-1.3-5.7-2-10.5-2h-8.5c-7.7,0-13.6-1.6-17.7-4.8c-4.1-3.2-6.1-7.7-6.1-13.4v-7 c0-11.7,11.1-17.6,33.4-17.6c1.6,0,9.2,0.4,22.7,1.2v10c-9.2-1.4-16.9-2.2-23.3-2.2c-7.3,0-12.3,0.7-15,2.2c-2.7,1.4-4,3.9-4,7.3 v6.3c0,5,4.6,7.6,13.7,7.6h8.6c15.8,0,23.6,5.9,23.6,17.6v6.5c0,7.7-2.7,13.2-8,16.5c-5.4,3.2-13.5,4.9-24.6,4.9 C976.7,567,968.1,566.4,959,565.2z" class="st0"/></g></g></svg>